/vscmnt/brussel_pixiu_data/_data_brussel/112/vsc11236/PredSimResults/SUBJ07mtu3D/worker1.mot
version=1
nRows=5
nColumns=50
inDegrees=yes
endheader
                time	         pelvis_tilt	         pelvis_list	     pelvis_rotation	           pelvis_tx	           pelvis_ty	           pelvis_tz	       hip_flexion_r	     hip_adduction_r	      hip_rotation_r	        knee_angle_r	       ankle_angle_r	         mtp_angle_r	       hip_flexion_l	     hip_adduction_l	      hip_rotation_l	        knee_angle_l	       ankle_angle_l	         mtp_angle_l	    lumbar_extension	      lumbar_bending	     lumbar_rotation	 ercspn_r/activation	 intobl_r/activation	 extobl_r/activation	    abd_r/activation	    add_r/activation	hamstrings_r/activation	bifemsh_r/activation	glut_max_r/activation	iliopsoas_r/activation	rect_fem_r/activation	  vasti_r/activation	gastroc_r/activation	 soleus_r/activation	tib_ant_r/activation	 ercspn_l/activation	 intobl_l/activation	 extobl_l/activation	    abd_l/activation	    add_l/activation	hamstrings_l/activation	bifemsh_l/activation	glut_max_l/activation	iliopsoas_l/activation	rect_fem_l/activation	  vasti_l/activation	gastroc_l/activation	 soleus_l/activation	tib_ant_l/activation	
          1.10619827	         -4.09042834	         -0.31512722	          8.19306376	          1.34956189	          0.84929975	         -0.01266396	         29.85143669	         -2.16320867	         -4.34039927	         -6.70741030	          2.04794516	          0.27026307	        -14.52664969	         -0.25422702	          3.50244856	         -9.21022441	          7.86511042	         28.35154673	        -10.62822631	         -1.42568652	         -1.34279193	          0.12178906	          0.12971896	          0.01000105	          0.01080738	          0.13720166	          0.06595962	          0.10964305	          0.08439597	          0.03184688	          0.01184331	          0.01000029	          0.01000058	          0.01000033	          0.39675565	          0.12345783	          0.01000025	          0.01000024	          0.03202783	          0.01087243	          0.01654358	          0.13542745	          0.01661509	          0.12705760	          0.01184462	          0.01090315	          0.13661773	          0.29569023	          0.01708572	
          1.11726026	         -4.09696999	         -0.29352378	          8.22434870	          1.36533290	          0.84781600	         -0.01230017	         29.61819471	         -1.95066656	         -4.05160773	         -8.15182160	          1.70265803	          0.25292319	        -14.99704541	         -0.35951888	          3.17995806	        -10.22313928	          6.88641142	         29.88403939	        -10.52240671	         -1.02601544	         -1.54377049	          0.10283078	          0.11874833	          0.01000024	          0.01000052	          0.11584418	          0.06416943	          0.12443929	          0.12759116	          0.02688942	          0.01000051	          0.01000017	          0.01402887	          0.01184372	          0.43438419	          0.13341197	          0.01000009	          0.01000084	          0.02704217	          0.02762135	          0.01397948	          0.11434616	          0.01402874	          0.10728376	          0.01000136	          0.01000020	          0.11535094	          0.27715448	          0.01442606	
          1.12832224	         -4.09652609	         -0.26309357	          8.20698863	          1.38125444	          0.84653377	         -0.01184930	         29.30886131	         -1.79329786	         -3.77856660	         -9.50579805	          1.26532466	          0.24792795	        -15.32287717	         -0.44312109	          2.81603354	        -11.51741683	          5.80335597	         31.34791585	        -10.41375971	         -0.63564334	         -1.73690029	          0.13477023	          0.10026327	          0.01000027	          0.09458124	          0.13486897	          0.06044701	          0.11081690	          0.12298190	          0.02270367	          0.01000024	          0.01000005	          0.01184510	          0.01000009	          0.50781005	          0.14667100	          0.01000008	          0.01000027	          0.02283262	          0.02332212	          0.01182272	          0.09654648	          0.01184506	          0.09058484	          0.01000303	          0.01000064	          0.09739466	          0.25453828	          0.01218041	
          1.13938422	         -4.09064180	         -0.21017397	          8.14502005	          1.39713689	          0.84561144	         -0.01130312	         29.00682872	         -1.65720024	         -3.55587444	        -10.85955355	          0.79486655	          0.22838054	        -15.42179550	         -0.49064999	          2.42519843	        -13.20775592	          4.59637050	         32.68496074	        -10.32298169	         -0.26953552	         -1.92064907	          0.14784198	          0.08465566	          0.01000024	          0.14385565	          0.16067402	          0.05449883	          0.09356673	          0.15075777	          0.01916950	          0.01000038	          0.01000012	          0.01000137	          0.01000011	          0.53636780	          0.18348997	          0.01000009	          0.01000025	          0.01927835	          0.03135029	          0.01145121	          0.08151761	          0.01000152	          0.07648466	          0.01000397	          0.01000166	          0.08223357	          0.22395702	          0.01028435	
          1.15044621	         -4.07944336	         -0.14263745	          8.04348564	          1.41283860	          0.84519400	         -0.01067439	         28.77095638	         -1.53119526	         -3.36674431	        -12.36322407	          0.58183651	          0.20687827	        -15.21839676	         -0.51021310	          2.00996846	        -15.40190732	          3.27944868	         33.75147627	        -10.25821067	          0.08037678	         -2.09278251	          0.15598444	          0.07147763	          0.01000019	          0.18651098	          0.18770697	          0.04851584	          0.07900174	          0.17710373	          0.01618549	          0.01000047	          0.01928556	          0.01000042	          0.01000019	          0.53052158	          0.22583674	          0.01000008	          0.01000028	          0.01627736	          0.05048070	          0.01243017	          0.06882827	          0.01000019	          0.06457910	          0.01000127	          0.01000027	          0.06943256	          0.18909445	          0.01000007	
